<svg width="44" height="44" viewBox="0 0 44 44" fill="none" xmlns="http://www.w3.org/2000/svg">
<path d="M19.5821 12.9596C19.1915 12.5691 18.5584 12.5691 18.1679 12.9596C17.7773 13.3501 17.7773 13.9833 18.1679 14.3738L19.5821 12.9596ZM27.2083 22L27.9154 22.7071C28.3059 22.3166 28.3059 21.6834 27.9154 21.2929L27.2083 22ZM18.1679 29.6262C17.7773 30.0168 17.7773 30.6499 18.1679 31.0405C18.5584 31.431 19.1915 31.431 19.5821 31.0405L18.1679 29.6262ZM41.8333 22C41.8333 32.9537 32.9536 41.8334 22 41.8334V43.8334C34.0582 43.8334 43.8333 34.0582 43.8333 22H41.8333ZM22 41.8334C11.0463 41.8334 2.16663 32.9537 2.16663 22H0.166626C0.166626 34.0582 9.94174 43.8334 22 43.8334V41.8334ZM2.16663 22C2.16663 11.0464 11.0463 2.16669 22 2.16669V0.166687C9.94174 0.166687 0.166626 9.9418 0.166626 22H2.16663ZM22 2.16669C32.9536 2.16669 41.8333 11.0464 41.8333 22H43.8333C43.8333 9.9418 34.0582 0.166687 22 0.166687V2.16669ZM18.1679 14.3738L26.5012 22.7071L27.9154 21.2929L19.5821 12.9596L18.1679 14.3738ZM26.5012 21.2929L18.1679 29.6262L19.5821 31.0405L27.9154 22.7071L26.5012 21.2929Z" fill="#214177"/>
</svg>
