<svg width="450" height="432" viewBox="0 0 450 432" fill="none" xmlns="http://www.w3.org/2000/svg">
<path d="M408.75 318.75V290.625C407.285 277.727 401.124 265.819 391.441 257.174C381.758 248.528 369.231 243.75 356.25 243.75C343.269 243.75 330.742 248.528 321.059 257.174C311.376 265.819 305.215 277.727 303.75 290.625V318.75C297.913 319.145 292.416 321.642 288.279 325.779C284.142 329.916 281.645 335.413 281.25 341.25V406.875C281.275 413.015 283.599 418.923 287.764 423.434C291.928 427.946 297.632 430.734 303.75 431.25H406.875C413.015 431.225 418.923 428.901 423.434 424.736C427.946 420.572 430.734 414.868 431.25 408.75V343.125C431.225 336.985 428.901 331.077 424.736 326.565C420.572 322.054 414.868 319.265 408.75 318.75ZM328.125 290.625C328.3 287.153 329.175 283.751 330.698 280.626C332.222 277.501 334.361 274.716 336.989 272.439C339.616 270.162 342.677 268.44 345.987 267.376C349.297 266.313 352.788 265.929 356.25 266.25C359.712 265.929 363.203 266.313 366.513 267.376C369.823 268.44 372.884 270.162 375.511 272.439C378.139 274.716 380.278 277.501 381.802 280.626C383.325 283.751 384.2 287.153 384.375 290.625V318.75H328.125V290.625Z" fill="#214177"/>
<path d="M450 206.25V37.5C450 27.5544 446.049 18.0161 439.017 10.9835C431.984 3.95088 422.446 0 412.5 0L37.5 0C27.5544 0 18.0161 3.95088 10.9835 10.9835C3.95088 18.0161 0 27.5544 0 37.5V375C0 384.946 3.95088 394.484 10.9835 401.517C18.0161 408.549 27.5544 412.5 37.5 412.5H243.75V375H37.5V37.5H412.5V206.25" fill="#214177"/>
<path d="M112.5 75H75V112.5H112.5V75Z" fill="#214177"/>
<path d="M375 75H150V112.5H375V75Z" fill="#214177"/>
<path d="M243.75 300H150V337.5H243.75V300Z" fill="#214177"/>
<path d="M112.5 300H75V337.5H112.5V300Z" fill="#214177"/>
<path d="M187.5 150H150V187.5H187.5V150Z" fill="#214177"/>
<path d="M375 150H225V187.5H375V150Z" fill="#214177"/>
<path d="M277.65 225H225V262.5H266.25V253.125C266.448 242.664 270.508 232.646 277.65 225Z" fill="#214177"/>
<path d="M187.5 225H150V262.5H187.5V225Z" fill="#214177"/>
</svg>
