<svg width="42" height="42" viewBox="0 0 42 42" fill="none" xmlns="http://www.w3.org/2000/svg">
<path d="M21 41C32.0457 41 41 32.0457 41 21C41 9.9543 32.0457 1 21 1C9.9543 1 1 9.9543 1 21C1 32.0457 9.9543 41 21 41Z" stroke="#3667A6" stroke-width="1.5"/>
<path d="M30.166 16.334C28.62 13.194 25.086 11 20.976 11C15.776 11 11.5 14.508 11 19" stroke="#3667A6" stroke-width="1.5" stroke-linecap="round" stroke-linejoin="round"/>
<path d="M25.988 16.444H29.8C29.9576 16.444 30.1137 16.413 30.2593 16.3527C30.4048 16.2923 30.5371 16.204 30.6486 16.0925C30.76 15.9811 30.8484 15.8488 30.9087 15.7032C30.969 15.5576 31 15.4016 31 15.244V12" stroke="#3667A6" stroke-width="1.5" stroke-linecap="round" stroke-linejoin="round"/>
<path d="M11.834 24.334C13.382 28.258 16.914 31 21.024 31C26.224 31 30.496 26.614 31 21" stroke="#3667A6" stroke-width="1.5" stroke-linecap="round" stroke-linejoin="round"/>
<path d="M16.012 24.244H12.2C11.8817 24.244 11.5765 24.3704 11.3515 24.5955C11.1264 24.8205 11 25.1257 11 25.444V29.8" stroke="#3667A6" stroke-width="1.5" stroke-linecap="round" stroke-linejoin="round"/>
</svg>
